<mxfile host="www.draw.io" modified="2019-11-12T12:15:41.593Z" agent="Mozilla/5.0 (Windows NT 10.0; Win64; x64; rv:70.0) Gecko/20100101 Firefox/70.0" etag="enOPmePv1jEFWeAeGnuy" version="12.2.4" type="github" pages="1">
  <diagram id="ojVR5sZqVXIqG7PL1kj3" name="Page-1">
    <mxGraphModel dx="768" dy="418" grid="0" gridSize="10" guides="1" tooltips="1" connect="1" arrows="1" fold="1" page="1" pageScale="1" pageWidth="850" pageHeight="1100" math="0" shadow="0">
      <root>
        <mxCell id="0"/>
        <mxCell id="1" parent="0"/>
        <mxCell id="yJJOc1iiC_G2vgknsiEj-6" value="" style="edgeStyle=orthogonalEdgeStyle;rounded=0;orthogonalLoop=1;jettySize=auto;html=1;" parent="1" source="yJJOc1iiC_G2vgknsiEj-1" target="yJJOc1iiC_G2vgknsiEj-3" edge="1">
          <mxGeometry relative="1" as="geometry"/>
        </mxCell>
        <mxCell id="yJJOc1iiC_G2vgknsiEj-1" value="" style="ellipse;html=1;shape=startState;fillColor=#000000;strokeColor=#ff0000;" parent="1" vertex="1">
          <mxGeometry x="285" y="117" width="30" height="30" as="geometry"/>
        </mxCell>
        <mxCell id="yJJOc1iiC_G2vgknsiEj-3" value="&lt;div&gt;A = 2&lt;/div&gt;&lt;div&gt;B = 1&lt;br&gt;&lt;/div&gt;" style="rounded=1;whiteSpace=wrap;html=1;arcSize=40;fontColor=#000000;fillColor=#ffffc0;strokeColor=#ff0000;" parent="1" vertex="1">
          <mxGeometry x="240" y="166" width="120" height="40" as="geometry"/>
        </mxCell>
        <mxCell id="yJJOc1iiC_G2vgknsiEj-4" value="" style="edgeStyle=orthogonalEdgeStyle;html=1;verticalAlign=bottom;endArrow=open;endSize=8;strokeColor=#ff0000;exitX=0.5;exitY=1;exitDx=0;exitDy=0;" parent="1" source="yJJOc1iiC_G2vgknsiEj-3" target="yJJOc1iiC_G2vgknsiEj-7" edge="1">
          <mxGeometry relative="1" as="geometry">
            <mxPoint x="300" y="250" as="targetPoint"/>
            <Array as="points">
              <mxPoint x="300" y="240"/>
            </Array>
          </mxGeometry>
        </mxCell>
        <mxCell id="yJJOc1iiC_G2vgknsiEj-9" value="[A &amp;lt;= B ]" style="edgeStyle=orthogonalEdgeStyle;rounded=0;orthogonalLoop=1;jettySize=auto;html=1;" parent="1" source="yJJOc1iiC_G2vgknsiEj-7" target="yJJOc1iiC_G2vgknsiEj-10" edge="1">
          <mxGeometry relative="1" as="geometry">
            <mxPoint x="180" y="250" as="targetPoint"/>
          </mxGeometry>
        </mxCell>
        <mxCell id="AkWmVCAu60t53d2BmaMV-3" value="A &amp;gt; B" style="edgeStyle=orthogonalEdgeStyle;rounded=0;orthogonalLoop=1;jettySize=auto;html=1;" edge="1" parent="1" source="yJJOc1iiC_G2vgknsiEj-7" target="AkWmVCAu60t53d2BmaMV-1">
          <mxGeometry relative="1" as="geometry"/>
        </mxCell>
        <mxCell id="yJJOc1iiC_G2vgknsiEj-7" value="" style="rhombus;whiteSpace=wrap;html=1;fillColor=#ffffc0;strokeColor=#ff0000;" parent="1" vertex="1">
          <mxGeometry x="260" y="230" width="80" height="40" as="geometry"/>
        </mxCell>
        <mxCell id="yJJOc1iiC_G2vgknsiEj-13" value="&lt;div&gt;A = ?&lt;/div&gt;&lt;div&gt;B = ?&lt;br&gt;&lt;/div&gt;" style="edgeStyle=orthogonalEdgeStyle;rounded=0;orthogonalLoop=1;jettySize=auto;html=1;" parent="1" source="yJJOc1iiC_G2vgknsiEj-10" edge="1">
          <mxGeometry relative="1" as="geometry">
            <mxPoint x="170" y="380" as="targetPoint"/>
          </mxGeometry>
        </mxCell>
        <mxCell id="yJJOc1iiC_G2vgknsiEj-10" value="&lt;div&gt;A = A - 1&lt;/div&gt;&lt;div&gt;B = B -1&lt;br&gt;&lt;/div&gt;" style="rounded=1;whiteSpace=wrap;html=1;arcSize=40;fontColor=#000000;fillColor=#ffffc0;strokeColor=#ff0000;" parent="1" vertex="1">
          <mxGeometry x="110" y="282" width="120" height="40" as="geometry"/>
        </mxCell>
        <mxCell id="yJJOc1iiC_G2vgknsiEj-11" value="[A" style="ellipse;html=1;shape=endState;fillColor=#000000;strokeColor=#ff0000;direction=east;rotation=5;" parent="1" vertex="1">
          <mxGeometry x="155" y="380" width="30" height="30" as="geometry"/>
        </mxCell>
        <mxCell id="AkWmVCAu60t53d2BmaMV-1" value="&lt;div&gt;A = A - 1&lt;br&gt;&lt;/div&gt;&lt;div&gt;B = B + 10&lt;br&gt;&lt;/div&gt;" style="rounded=1;whiteSpace=wrap;html=1;arcSize=40;fontColor=#000000;fillColor=#ffffc0;strokeColor=#ff0000;direction=south;" vertex="1" parent="1">
          <mxGeometry x="279" y="375" width="90" height="40" as="geometry"/>
        </mxCell>
        <mxCell id="AkWmVCAu60t53d2BmaMV-2" value="" style="edgeStyle=orthogonalEdgeStyle;html=1;verticalAlign=bottom;endArrow=open;endSize=8;strokeColor=#ff0000;entryX=1;entryY=0.5;entryDx=0;entryDy=0;" edge="1" parent="1" target="yJJOc1iiC_G2vgknsiEj-7">
          <mxGeometry relative="1" as="geometry">
            <mxPoint x="320" y="390" as="targetPoint"/>
            <mxPoint x="367" y="396" as="sourcePoint"/>
            <Array as="points">
              <mxPoint x="399" y="396"/>
              <mxPoint x="399" y="370"/>
              <mxPoint x="410" y="370"/>
              <mxPoint x="410" y="250"/>
            </Array>
          </mxGeometry>
        </mxCell>
      </root>
    </mxGraphModel>
  </diagram>
</mxfile>
